<?xml version="1.0" standalone="no"?>
<!DOCTYPE svg PUBLIC "-//W3C//DTD SVG 20010904//EN"
 "http://www.w3.org/TR/2001/REC-SVG-20010904/DTD/svg10.dtd">
<svg version="1.0" xmlns="http://www.w3.org/2000/svg"
 width="700.000000pt" height="700.000000pt" viewBox="0 0 700.000000 700.000000"
 preserveAspectRatio="xMidYMid meet">
<metadata>
Created by potrace 1.11, written by Peter Selinger 2001-2013
</metadata>
<g transform="translate(0.000000,700.000000) scale(0.100000,-0.100000)"
fill="#000000" stroke="none">
<path d="M2987 6480 l-506 -510 -726 0 -725 0 0 -727 0 -728 -512 -512 -513
-513 513 -513 512 -512 0 -728 0 -727 729 0 729 0 500 -505 c275 -278 506
-505 514 -505 7 0 240 227 518 505 l505 505 722 0 723 0 0 727 0 728 512 512
513 513 -513 513 -512 512 0 728 0 727 -723 0 -722 0 -510 510 c-280 281 -513
510 -516 510 -4 0 -234 -229 -512 -510z m728 -500 c811 -76 1510 -516 1926
-1211 529 -885 453 -2022 -190 -2834 -84 -106 -274 -298 -384 -386 -353 -285
-742 -457 -1197 -531 -194 -31 -535 -31 -735 0 -423 66 -800 225 -1136 478
-115 86 -366 330 -451 439 -288 367 -470 806 -523 1261 -19 164 -19 423 0 586
89 763 527 1446 1182 1844 451 274 995 402 1508 354z"/>
<path d="M3260 5660 c-326 -40 -647 -154 -923 -327 -164 -103 -414 -327 -539
-483 -520 -652 -616 -1588 -238 -2340 186 -370 503 -705 860 -910 505 -288
1126 -360 1696 -196 345 99 657 285 914 545 429 432 644 950 642 1551 -1 475
-145 907 -430 1294 -86 117 -301 334 -417 423 -295 223 -603 359 -963 424
-133 24 -472 34 -602 19z m640 -1077 c0 -5 -111 -497 -247 -1095 l-247 -1088
-143 0 c-95 0 -143 4 -143 11 0 6 108 486 241 1067 132 581 243 1069 246 1085
l6 27 143 0 c79 0 144 -3 144 -7z m-1041 -465 l0 -183 -290 -222 -289 -222
285 -223 285 -223 0 -178 c0 -98 -3 -177 -8 -175 -4 1 -57 42 -117 90 -61 48
-267 210 -460 360 l-350 274 -2 74 -3 75 473 367 c259 202 473 367 475 368 1
0 2 -82 1 -182z m1924 -321 l307 -240 0 -68 0 -68 -466 -363 c-256 -200 -469
-365 -475 -366 -5 -2 -9 68 -8 175 l0 178 284 220 c156 121 284 222 284 225 1
3 -127 104 -284 225 l-285 220 0 182 0 183 168 -131 c92 -73 305 -240 475
-372z"/>
</g>
</svg>
